<svg xmlns="http://www.w3.org/2000/svg" xmlns:xlink="http://www.w3.org/1999/xlink" version="1.1" width="256" height="256" viewBox="0 0 256 256" xml:space="preserve">

<defs>
</defs>
<g style="stroke: none; stroke-width: 0; stroke-dasharray: none; stroke-linecap: butt; stroke-linejoin: miter; stroke-miterlimit: 10; fill: none; fill-rule: nonzero; opacity: 1;" transform="translate(1.4065934065934016 1.4065934065934016) scale(2.81 2.81)" >
	<path d="M 58.359 89.942 H 18.034 c -3.948 0 -7.16 -3.212 -7.16 -7.16 V 7.102 c 0 -3.948 3.212 -7.16 7.16 -7.16 H 71.85 c 3.948 0 7.16 3.212 7.16 7.16 V 70.83 c 0 1.104 -0.896 2 -2 2 s -2 -0.896 -2 -2 V 7.102 c 0 -1.742 -1.418 -3.16 -3.16 -3.16 H 18.034 c -1.742 0 -3.16 1.417 -3.16 3.16 v 75.68 c 0 1.742 1.417 3.16 3.16 3.16 h 40.325 c 1.104 0 2 0.896 2 2 S 59.464 89.942 58.359 89.942 z" style="stroke: none; stroke-width: 1; stroke-dasharray: none; stroke-linecap: butt; stroke-linejoin: miter; stroke-miterlimit: 10; fill: rgb(0,0,0); fill-rule: nonzero; opacity: 1;" transform=" matrix(1 0 0 1 0 0) " stroke-linecap="round" />
	<path d="M 65.145 40.383 H 24.74 c -1.104 0 -2 -0.896 -2 -2 s 0.896 -2 2 -2 h 40.404 c 1.104 0 2 0.896 2 2 S 66.249 40.383 65.145 40.383 z" style="stroke: none; stroke-width: 1; stroke-dasharray: none; stroke-linecap: butt; stroke-linejoin: miter; stroke-miterlimit: 10; fill: rgb(0,0,0); fill-rule: nonzero; opacity: 1;" transform=" matrix(1 0 0 1 0 0) " stroke-linecap="round" />
	<path d="M 29.962 52.044 H 24.74 c -1.104 0 -2 -0.896 -2 -2 s 0.896 -2 2 -2 h 5.222 c 1.104 0 2 0.896 2 2 S 31.067 52.044 29.962 52.044 z" style="stroke: none; stroke-width: 1; stroke-dasharray: none; stroke-linecap: butt; stroke-linejoin: miter; stroke-miterlimit: 10; fill: rgb(0,0,0); fill-rule: nonzero; opacity: 1;" transform=" matrix(1 0 0 1 0 0) " stroke-linecap="round" />
	<path d="M 38.923 63.705 H 24.74 c -1.104 0 -2 -0.896 -2 -2 s 0.896 -2 2 -2 h 14.183 c 1.104 0 2 0.896 2 2 S 40.028 63.705 38.923 63.705 z" style="stroke: none; stroke-width: 1; stroke-dasharray: none; stroke-linecap: butt; stroke-linejoin: miter; stroke-miterlimit: 10; fill: rgb(0,0,0); fill-rule: nonzero; opacity: 1;" transform=" matrix(1 0 0 1 0 0) " stroke-linecap="round" />
	<path d="M 65.145 28.722 H 50.149 c -1.104 0 -2 -0.896 -2 -2 s 0.896 -2 2 -2 h 14.995 c 1.104 0 2 0.896 2 2 S 66.249 28.722 65.145 28.722 z" style="stroke: none; stroke-width: 1; stroke-dasharray: none; stroke-linecap: butt; stroke-linejoin: miter; stroke-miterlimit: 10; fill: rgb(0,0,0); fill-rule: nonzero; opacity: 1;" transform=" matrix(1 0 0 1 0 0) " stroke-linecap="round" />
	<path d="M 65.145 17.79 H 24.74 c -1.104 0 -2 -0.896 -2 -2 s 0.896 -2 2 -2 h 40.404 c 1.104 0 2 0.896 2 2 S 66.249 17.79 65.145 17.79 z" style="stroke: none; stroke-width: 1; stroke-dasharray: none; stroke-linecap: butt; stroke-linejoin: miter; stroke-miterlimit: 10; fill: rgb(0,0,0); fill-rule: nonzero; opacity: 1;" transform=" matrix(1 0 0 1 0 0) " stroke-linecap="round" />
	<path d="M 70.625 89.939 c -1.419 0 -2.838 -0.54 -3.919 -1.619 L 52.335 73.947 c -1.032 -1.031 -1.802 -2.313 -2.227 -3.707 l -2.304 -7.534 c -0.354 -1.161 -0.04 -2.414 0.817 -3.271 c 0.857 -0.855 2.108 -1.167 3.268 -0.813 l 7.536 2.303 c 1.394 0.426 2.675 1.195 3.705 2.226 l 14.371 14.372 c 1.047 1.046 1.624 2.438 1.624 3.918 s -0.577 2.872 -1.624 3.919 l -2.959 2.959 C 73.463 89.399 72.044 89.939 70.625 89.939 z M 52.031 62.849 l 1.903 6.224 c 0.234 0.77 0.659 1.478 1.229 2.047 l 14.371 14.372 c 0.601 0.599 1.578 0.603 2.181 0 l 2.959 -2.96 c 0.292 -0.292 0.452 -0.679 0.452 -1.09 s -0.16 -0.798 -0.452 -1.089 L 60.303 65.979 c -0.568 -0.568 -1.276 -0.993 -2.046 -1.229 L 52.031 62.849 z" style="stroke: none; stroke-width: 1; stroke-dasharray: none; stroke-linecap: butt; stroke-linejoin: miter; stroke-miterlimit: 10; fill: rgb(0,0,0); fill-rule: nonzero; opacity: 1;" transform=" matrix(1 0 0 1 0 0) " stroke-linecap="round" />
	<path d="M 65.134 85.918 c -0.512 0 -1.023 -0.195 -1.414 -0.586 c -0.781 -0.781 -0.781 -2.047 0 -2.828 l 7.968 -7.968 c 0.781 -0.781 2.047 -0.781 2.828 0 s 0.781 2.047 0 2.828 l -7.968 7.968 C 66.157 85.723 65.646 85.918 65.134 85.918 z" style="stroke: none; stroke-width: 1; stroke-dasharray: none; stroke-linecap: butt; stroke-linejoin: miter; stroke-miterlimit: 10; fill: rgb(0,0,0); fill-rule: nonzero; opacity: 1;" transform=" matrix(1 0 0 1 0 0) " stroke-linecap="round" />
	<path d="M 53.087 73.702 c -0.512 0 -1.023 -0.195 -1.414 -0.586 c -0.781 -0.781 -0.781 -2.047 0 -2.828 l 7.825 -7.825 c 0.781 -0.781 2.047 -0.781 2.828 0 s 0.781 2.047 0 2.828 l -7.825 7.825 C 54.11 73.507 53.599 73.702 53.087 73.702 z" style="stroke: none; stroke-width: 1; stroke-dasharray: none; stroke-linecap: butt; stroke-linejoin: miter; stroke-miterlimit: 10; fill: rgb(0,0,0); fill-rule: nonzero; opacity: 1;" transform=" matrix(1 0 0 1 0 0) " stroke-linecap="round" />
	<path d="M 40.712 28.722 H 24.74 c -1.104 0 -2 -0.896 -2 -2 s 0.896 -2 2 -2 h 15.972 c 1.104 0 2 0.896 2 2 S 41.817 28.722 40.712 28.722 z" style="stroke: none; stroke-width: 1; stroke-dasharray: none; stroke-linecap: butt; stroke-linejoin: miter; stroke-miterlimit: 10; fill: rgb(0,0,0); fill-rule: nonzero; opacity: 1;" transform=" matrix(1 0 0 1 0 0) " stroke-linecap="round" />
	<path d="M 65.145 52.044 H 39.399 c -1.104 0 -2 -0.896 -2 -2 s 0.896 -2 2 -2 h 25.745 c 1.104 0 2 0.896 2 2 S 66.249 52.044 65.145 52.044 z" style="stroke: none; stroke-width: 1; stroke-dasharray: none; stroke-linecap: butt; stroke-linejoin: miter; stroke-miterlimit: 10; fill: rgb(0,0,0); fill-rule: nonzero; opacity: 1;" transform=" matrix(1 0 0 1 0 0) " stroke-linecap="round" />
</g>
</svg>