<?xml version="1.0" standalone="no"?>
<!DOCTYPE svg PUBLIC "-//W3C//DTD SVG 20010904//EN"
 "http://www.w3.org/TR/2001/REC-SVG-20010904/DTD/svg10.dtd">
<svg version="1.0" xmlns="http://www.w3.org/2000/svg"
 width="312.000000pt" height="308.000000pt" viewBox="0 0 312.000000 308.000000"
 preserveAspectRatio="xMidYMid meet">

<g transform="translate(0.000000,308.000000) scale(0.100000,-0.100000)"
fill="#000000" stroke="none">
<path d="M1012 3025 c-141 -96 -308 -308 -426 -542 -25 -51 -52 -93 -59 -92
-6 0 -37 50 -67 111 -30 60 -60 112 -66 114 -11 5 -42 -12 -177 -96 -55 -33
-75 -50 -65 -56 7 -4 33 -19 58 -32 63 -33 163 -117 257 -215 l80 -84 61 91
c123 185 338 415 437 467 37 19 45 28 40 44 -3 11 -10 45 -15 75 -9 50 -8 83
5 208 3 23 1 42 -3 42 -4 0 -31 -16 -60 -35z"/>
<path d="M1285 2483 c-40 -10 -84 -53 -95 -93 -18 -65 8 -128 63 -157 28 -14
126 -16 877 -16 754 0 849 2 876 16 44 23 66 62 66 117 0 52 -19 89 -60 117
-26 17 -73 18 -867 19 -462 1 -849 0 -860 -3z"/>
<path d="M1013 1984 c-158 -119 -318 -323 -431 -551 -26 -51 -50 -93 -54 -93
-4 0 -32 51 -63 113 -31 61 -60 116 -65 121 -8 8 -258 -131 -259 -145 -1 -3
20 -15 46 -28 71 -34 201 -140 285 -231 l74 -81 51 78 c137 208 375 458 471
494 19 7 23 14 18 32 -4 12 -11 47 -16 77 -9 50 -8 83 5 208 3 23 1 42 -4 42
-5 0 -31 -16 -58 -36z"/>
<path d="M1300 1440 c-76 -14 -114 -57 -114 -131 0 -52 20 -89 61 -116 25 -17
82 -18 883 -18 801 0 858 1 883 18 82 54 81 178 -2 229 l-36 23 -820 1 c-451
0 -836 -3 -855 -6z"/>
<path d="M1014 966 c-144 -97 -313 -312 -430 -549 -27 -53 -51 -97 -54 -97 -3
0 -33 52 -65 116 -33 64 -65 118 -71 121 -13 5 -236 -127 -241 -143 -2 -5 11
-17 30 -26 60 -29 191 -135 278 -225 l86 -89 61 90 c124 187 331 407 435 464
40 21 47 30 42 46 -23 78 -25 162 -9 289 2 20 1 37 -4 37 -4 0 -30 -15 -58
-34z"/>
<path d="M1368 420 c-124 -6 -155 -21 -176 -87 -19 -59 -2 -114 45 -150 l36
-28 711 -3 c391 -2 729 0 752 3 50 7 99 52 115 105 10 33 9 44 -9 82 -41 84 1
80 -725 81 -353 1 -690 0 -749 -3z"/>
</g>
</svg>
